<svg width="88" height="65" viewBox="0 0 88 65" fill="none" xmlns="http://www.w3.org/2000/svg">
<g filter="url(#filter0_biii_23_234)">
<path d="M0.5 56V9C0.5 4.02944 4.52944 0 9.5 0H73.5C78.4706 0 82.5 4.02944 82.5 9V56C82.5 60.9706 78.4706 65 73.5 65H9.5C4.52944 65 0.5 60.9706 0.5 56Z" fill="url(#paint0_linear_23_234)" fill-opacity="0.77"/>
</g>
<g filter="url(#filter1_biii_23_234)">
<path d="M74.5 11H10.5C9.39543 11 8.5 10.1046 8.5 9C8.5 7.89543 9.39543 7 10.5 7H74.5C75.6046 7 76.5 7.89543 76.5 9C76.5 10.1046 75.6046 11 74.5 11Z" fill="#D9D9D9" fill-opacity="0.04"/>
</g>
<g filter="url(#filter2_biii_23_234)">
<path d="M67.5 38H17.5C12.5294 38 8.5 33.9706 8.5 29C8.5 24.0294 12.5294 20 17.5 20H67.5C72.4706 20 76.5 24.0294 76.5 29C76.5 33.9706 72.4706 38 67.5 38Z" fill="#D9D9D9" fill-opacity="0.09"/>
</g>
<g filter="url(#filter3_biii_23_234)">
<path d="M19 62H11C9.61929 62 8.5 60.8807 8.5 59.5C8.5 58.1193 9.61929 57 11 57H19C20.3807 57 21.5 58.1193 21.5 59.5C21.5 60.8807 20.3807 62 19 62Z" fill="#D9D9D9" fill-opacity="0.04"/>
</g>
<g filter="url(#filter4_biii_23_234)">
<path d="M74 62H73C71.6193 62 70.5 60.8807 70.5 59.5C70.5 58.1193 71.6193 57 73 57H74C75.3807 57 76.5 58.1193 76.5 59.5C76.5 60.8807 75.3807 62 74 62Z" fill="#D9D9D9" fill-opacity="0.04"/>
</g>
<path d="M17.9034 32L15.9091 25.4545H16.9659L18.3807 30.4659H18.4489L19.8466 25.4545H20.9205L22.3011 30.4489H22.3693L23.7841 25.4545H24.8409L22.8466 32H21.858L20.4261 26.9716H20.3239L18.892 32H17.9034ZM27.6534 32L25.6591 25.4545H26.7159L28.1307 30.4659H28.1989L29.5966 25.4545H30.6705L32.0511 30.4489H32.1193L33.5341 25.4545H34.5909L32.5966 32H31.608L30.1761 26.9716H30.0739L28.642 32H27.6534ZM37.4034 32L35.4091 25.4545H36.4659L37.8807 30.4659H37.9489L39.3466 25.4545H40.4205L41.8011 30.4489H41.8693L43.2841 25.4545H44.3409L42.3466 32H41.358L39.9261 26.9716H39.8239L38.392 32H37.4034Z" fill="#E1E1E1"/>
<path fill-rule="evenodd" clip-rule="evenodd" d="M52.5 29C52.5 35.6164 57.8836 41 64.5 41C67.1459 41 69.5947 40.1391 71.5808 38.6826L84.7028 51.8046C85.415 52.5168 86.578 52.5126 87.2953 51.7953C88.0126 51.078 88.0168 49.915 87.3046 49.2028L74.1826 36.0808C75.6391 34.0946 76.5 31.6459 76.5 29C76.5 22.3836 71.1164 17 64.5 17C57.8836 17 52.5 22.3836 52.5 29ZM55.893 29C55.893 24.2498 59.7498 20.393 64.5 20.393C69.2502 20.393 73.107 24.2498 73.107 29C73.107 33.7502 69.2502 37.607 64.5 37.607C59.7498 37.607 55.893 33.7502 55.893 29Z" fill="url(#paint1_linear_23_234)"/>
<defs>
<filter id="filter0_biii_23_234" x="-6.1202" y="-6.6202" width="95.2404" height="78.2404" filterUnits="userSpaceOnUse" color-interpolation-filters="sRGB">
<feFlood flood-opacity="0" result="BackgroundImageFix"/>
<feGaussianBlur in="BackgroundImageFix" stdDeviation="3.3101"/>
<feComposite in2="SourceAlpha" operator="in" result="effect1_backgroundBlur_23_234"/>
<feBlend mode="normal" in="SourceGraphic" in2="effect1_backgroundBlur_23_234" result="shape"/>
<feColorMatrix in="SourceAlpha" type="matrix" values="0 0 0 0 0 0 0 0 0 0 0 0 0 0 0 0 0 0 127 0" result="hardAlpha"/>
<feOffset dy="0.735578"/>
<feGaussianBlur stdDeviation="3.3101"/>
<feComposite in2="hardAlpha" operator="arithmetic" k2="-1" k3="1"/>
<feColorMatrix type="matrix" values="0 0 0 0 1 0 0 0 0 1 0 0 0 0 1 0 0 0 0.36 0"/>
<feBlend mode="normal" in2="shape" result="effect2_innerShadow_23_234"/>
<feColorMatrix in="SourceAlpha" type="matrix" values="0 0 0 0 0 0 0 0 0 0 0 0 0 0 0 0 0 0 127 0" result="hardAlpha"/>
<feOffset dy="0.735578"/>
<feGaussianBlur stdDeviation="0.367789"/>
<feComposite in2="hardAlpha" operator="arithmetic" k2="-1" k3="1"/>
<feColorMatrix type="matrix" values="0 0 0 0 1 0 0 0 0 1 0 0 0 0 1 0 0 0 0.15 0"/>
<feBlend mode="normal" in2="effect2_innerShadow_23_234" result="effect3_innerShadow_23_234"/>
<feColorMatrix in="SourceAlpha" type="matrix" values="0 0 0 0 0 0 0 0 0 0 0 0 0 0 0 0 0 0 127 0" result="hardAlpha"/>
<feOffset dy="0.183894"/>
<feGaussianBlur stdDeviation="0.0919472"/>
<feComposite in2="hardAlpha" operator="arithmetic" k2="-1" k3="1"/>
<feColorMatrix type="matrix" values="0 0 0 0 1 0 0 0 0 1 0 0 0 0 1 0 0 0 0.05 0"/>
<feBlend mode="normal" in2="effect3_innerShadow_23_234" result="effect4_innerShadow_23_234"/>
</filter>
<filter id="filter1_biii_23_234" x="1.8798" y="0.379799" width="81.2404" height="17.2404" filterUnits="userSpaceOnUse" color-interpolation-filters="sRGB">
<feFlood flood-opacity="0" result="BackgroundImageFix"/>
<feGaussianBlur in="BackgroundImageFix" stdDeviation="3.3101"/>
<feComposite in2="SourceAlpha" operator="in" result="effect1_backgroundBlur_23_234"/>
<feBlend mode="normal" in="SourceGraphic" in2="effect1_backgroundBlur_23_234" result="shape"/>
<feColorMatrix in="SourceAlpha" type="matrix" values="0 0 0 0 0 0 0 0 0 0 0 0 0 0 0 0 0 0 127 0" result="hardAlpha"/>
<feOffset dy="0.735578"/>
<feGaussianBlur stdDeviation="3.3101"/>
<feComposite in2="hardAlpha" operator="arithmetic" k2="-1" k3="1"/>
<feColorMatrix type="matrix" values="0 0 0 0 1 0 0 0 0 1 0 0 0 0 1 0 0 0 0.36 0"/>
<feBlend mode="normal" in2="shape" result="effect2_innerShadow_23_234"/>
<feColorMatrix in="SourceAlpha" type="matrix" values="0 0 0 0 0 0 0 0 0 0 0 0 0 0 0 0 0 0 127 0" result="hardAlpha"/>
<feOffset dy="0.735578"/>
<feGaussianBlur stdDeviation="0.367789"/>
<feComposite in2="hardAlpha" operator="arithmetic" k2="-1" k3="1"/>
<feColorMatrix type="matrix" values="0 0 0 0 1 0 0 0 0 1 0 0 0 0 1 0 0 0 0.15 0"/>
<feBlend mode="normal" in2="effect2_innerShadow_23_234" result="effect3_innerShadow_23_234"/>
<feColorMatrix in="SourceAlpha" type="matrix" values="0 0 0 0 0 0 0 0 0 0 0 0 0 0 0 0 0 0 127 0" result="hardAlpha"/>
<feOffset dy="0.183894"/>
<feGaussianBlur stdDeviation="0.0919472"/>
<feComposite in2="hardAlpha" operator="arithmetic" k2="-1" k3="1"/>
<feColorMatrix type="matrix" values="0 0 0 0 1 0 0 0 0 1 0 0 0 0 1 0 0 0 0.05 0"/>
<feBlend mode="normal" in2="effect3_innerShadow_23_234" result="effect4_innerShadow_23_234"/>
</filter>
<filter id="filter2_biii_23_234" x="1.8798" y="13.3798" width="81.2404" height="31.2404" filterUnits="userSpaceOnUse" color-interpolation-filters="sRGB">
<feFlood flood-opacity="0" result="BackgroundImageFix"/>
<feGaussianBlur in="BackgroundImageFix" stdDeviation="3.3101"/>
<feComposite in2="SourceAlpha" operator="in" result="effect1_backgroundBlur_23_234"/>
<feBlend mode="normal" in="SourceGraphic" in2="effect1_backgroundBlur_23_234" result="shape"/>
<feColorMatrix in="SourceAlpha" type="matrix" values="0 0 0 0 0 0 0 0 0 0 0 0 0 0 0 0 0 0 127 0" result="hardAlpha"/>
<feOffset dy="0.735578"/>
<feGaussianBlur stdDeviation="3.3101"/>
<feComposite in2="hardAlpha" operator="arithmetic" k2="-1" k3="1"/>
<feColorMatrix type="matrix" values="0 0 0 0 1 0 0 0 0 1 0 0 0 0 1 0 0 0 0.36 0"/>
<feBlend mode="normal" in2="shape" result="effect2_innerShadow_23_234"/>
<feColorMatrix in="SourceAlpha" type="matrix" values="0 0 0 0 0 0 0 0 0 0 0 0 0 0 0 0 0 0 127 0" result="hardAlpha"/>
<feOffset dy="0.735578"/>
<feGaussianBlur stdDeviation="0.367789"/>
<feComposite in2="hardAlpha" operator="arithmetic" k2="-1" k3="1"/>
<feColorMatrix type="matrix" values="0 0 0 0 1 0 0 0 0 1 0 0 0 0 1 0 0 0 0.15 0"/>
<feBlend mode="normal" in2="effect2_innerShadow_23_234" result="effect3_innerShadow_23_234"/>
<feColorMatrix in="SourceAlpha" type="matrix" values="0 0 0 0 0 0 0 0 0 0 0 0 0 0 0 0 0 0 127 0" result="hardAlpha"/>
<feOffset dy="0.183894"/>
<feGaussianBlur stdDeviation="0.0919472"/>
<feComposite in2="hardAlpha" operator="arithmetic" k2="-1" k3="1"/>
<feColorMatrix type="matrix" values="0 0 0 0 1 0 0 0 0 1 0 0 0 0 1 0 0 0 0.05 0"/>
<feBlend mode="normal" in2="effect3_innerShadow_23_234" result="effect4_innerShadow_23_234"/>
</filter>
<filter id="filter3_biii_23_234" x="1.8798" y="50.3798" width="26.2404" height="18.2404" filterUnits="userSpaceOnUse" color-interpolation-filters="sRGB">
<feFlood flood-opacity="0" result="BackgroundImageFix"/>
<feGaussianBlur in="BackgroundImageFix" stdDeviation="3.3101"/>
<feComposite in2="SourceAlpha" operator="in" result="effect1_backgroundBlur_23_234"/>
<feBlend mode="normal" in="SourceGraphic" in2="effect1_backgroundBlur_23_234" result="shape"/>
<feColorMatrix in="SourceAlpha" type="matrix" values="0 0 0 0 0 0 0 0 0 0 0 0 0 0 0 0 0 0 127 0" result="hardAlpha"/>
<feOffset dy="0.735578"/>
<feGaussianBlur stdDeviation="3.3101"/>
<feComposite in2="hardAlpha" operator="arithmetic" k2="-1" k3="1"/>
<feColorMatrix type="matrix" values="0 0 0 0 1 0 0 0 0 1 0 0 0 0 1 0 0 0 0.36 0"/>
<feBlend mode="normal" in2="shape" result="effect2_innerShadow_23_234"/>
<feColorMatrix in="SourceAlpha" type="matrix" values="0 0 0 0 0 0 0 0 0 0 0 0 0 0 0 0 0 0 127 0" result="hardAlpha"/>
<feOffset dy="0.735578"/>
<feGaussianBlur stdDeviation="0.367789"/>
<feComposite in2="hardAlpha" operator="arithmetic" k2="-1" k3="1"/>
<feColorMatrix type="matrix" values="0 0 0 0 1 0 0 0 0 1 0 0 0 0 1 0 0 0 0.15 0"/>
<feBlend mode="normal" in2="effect2_innerShadow_23_234" result="effect3_innerShadow_23_234"/>
<feColorMatrix in="SourceAlpha" type="matrix" values="0 0 0 0 0 0 0 0 0 0 0 0 0 0 0 0 0 0 127 0" result="hardAlpha"/>
<feOffset dy="0.183894"/>
<feGaussianBlur stdDeviation="0.0919472"/>
<feComposite in2="hardAlpha" operator="arithmetic" k2="-1" k3="1"/>
<feColorMatrix type="matrix" values="0 0 0 0 1 0 0 0 0 1 0 0 0 0 1 0 0 0 0.05 0"/>
<feBlend mode="normal" in2="effect3_innerShadow_23_234" result="effect4_innerShadow_23_234"/>
</filter>
<filter id="filter4_biii_23_234" x="63.8798" y="50.3798" width="19.2404" height="18.2404" filterUnits="userSpaceOnUse" color-interpolation-filters="sRGB">
<feFlood flood-opacity="0" result="BackgroundImageFix"/>
<feGaussianBlur in="BackgroundImageFix" stdDeviation="3.3101"/>
<feComposite in2="SourceAlpha" operator="in" result="effect1_backgroundBlur_23_234"/>
<feBlend mode="normal" in="SourceGraphic" in2="effect1_backgroundBlur_23_234" result="shape"/>
<feColorMatrix in="SourceAlpha" type="matrix" values="0 0 0 0 0 0 0 0 0 0 0 0 0 0 0 0 0 0 127 0" result="hardAlpha"/>
<feOffset dy="0.735578"/>
<feGaussianBlur stdDeviation="3.3101"/>
<feComposite in2="hardAlpha" operator="arithmetic" k2="-1" k3="1"/>
<feColorMatrix type="matrix" values="0 0 0 0 1 0 0 0 0 1 0 0 0 0 1 0 0 0 0.36 0"/>
<feBlend mode="normal" in2="shape" result="effect2_innerShadow_23_234"/>
<feColorMatrix in="SourceAlpha" type="matrix" values="0 0 0 0 0 0 0 0 0 0 0 0 0 0 0 0 0 0 127 0" result="hardAlpha"/>
<feOffset dy="0.735578"/>
<feGaussianBlur stdDeviation="0.367789"/>
<feComposite in2="hardAlpha" operator="arithmetic" k2="-1" k3="1"/>
<feColorMatrix type="matrix" values="0 0 0 0 1 0 0 0 0 1 0 0 0 0 1 0 0 0 0.15 0"/>
<feBlend mode="normal" in2="effect2_innerShadow_23_234" result="effect3_innerShadow_23_234"/>
<feColorMatrix in="SourceAlpha" type="matrix" values="0 0 0 0 0 0 0 0 0 0 0 0 0 0 0 0 0 0 127 0" result="hardAlpha"/>
<feOffset dy="0.183894"/>
<feGaussianBlur stdDeviation="0.0919472"/>
<feComposite in2="hardAlpha" operator="arithmetic" k2="-1" k3="1"/>
<feColorMatrix type="matrix" values="0 0 0 0 1 0 0 0 0 1 0 0 0 0 1 0 0 0 0.05 0"/>
<feBlend mode="normal" in2="effect3_innerShadow_23_234" result="effect4_innerShadow_23_234"/>
</filter>
<linearGradient id="paint0_linear_23_234" x1="10" y1="-1.60141e-06" x2="67.5" y2="69.5" gradientUnits="userSpaceOnUse">
<stop stop-color="#D9D9D9" stop-opacity="0.12"/>
<stop offset="1" stop-color="#E4E4E4" stop-opacity="0.41"/>
</linearGradient>
<linearGradient id="paint1_linear_23_234" x1="64" y1="32.5" x2="90" y2="63.5" gradientUnits="userSpaceOnUse">
<stop stop-color="#CAD3FF"/>
<stop offset="1" stop-color="#D3DAFF" stop-opacity="0.14"/>
</linearGradient>
</defs>
</svg>
