<svg width="86" height="61" viewBox="0 0 86 61" fill="none" xmlns="http://www.w3.org/2000/svg">
<g filter="url(#filter0_biii_23_259)">
<path fill-rule="evenodd" clip-rule="evenodd" d="M23.623 8.39278L20.6212 24.7172C20.617 24.74 20.6129 24.7628 20.6088 24.7857C8.40621 26.5443 0.2724 29.6972 0.2724 33.2942C0.2724 38.8106 19.4022 43.2825 43 43.2825C66.5978 43.2825 85.7276 38.8106 85.7276 33.2942C85.7276 29.6554 77.4039 26.4711 64.9646 24.725C64.944 24.6131 64.9217 24.5011 64.8977 24.389L61.3892 8.00801C60.1423 2.18652 53.5623 -0.706766 48.4294 2.3095C45.0605 4.28917 40.9005 4.35811 37.4678 2.49115L36.7747 2.11415C31.3963 -0.811038 24.7302 2.37139 23.623 8.39278Z" fill="url(#paint0_linear_23_259)"/>
</g>
<g filter="url(#filter1_i_23_259)">
<path fill-rule="evenodd" clip-rule="evenodd" d="M20.9276 44.7686C25.5747 46.0124 33.3039 47.4493 43.1209 47.4493C52.309 47.4493 62.039 45.5613 66.9414 44.4578C68.5778 44.0895 69.9903 45.3248 69.4073 46.8975C67.4398 52.2047 61.8697 60.6408 55.2916 60.6408C49.9007 60.6408 48.4571 58.6035 47.2141 56.8493C46.2745 55.5233 45.4496 54.3591 43.1209 54.3591C40.7193 54.3591 40.1713 55.5784 39.5582 56.9426C38.7797 58.6748 37.8961 60.6408 32.9787 60.6408C25.1644 60.6408 19.9574 52.7256 18.1418 47.2615C17.5813 45.5744 19.2102 44.3089 20.9276 44.7686ZM32.0611 54.9873C35.662 54.9873 38.5811 53.8624 38.5811 52.4746C38.5811 51.0869 35.662 49.962 32.0611 49.962C28.4602 49.962 25.5411 51.0869 25.5411 52.4746C25.5411 53.8624 28.4602 54.9873 32.0611 54.9873ZM55.5331 54.9873C59.134 54.9873 62.0531 53.8624 62.0531 52.4746C62.0531 51.0869 59.134 49.962 55.5331 49.962C51.9322 49.962 49.0131 51.0869 49.0131 52.4746C49.0131 53.8624 51.9322 54.9873 55.5331 54.9873Z" fill="url(#paint1_linear_23_259)"/>
</g>
<path d="M21.3587 28.855C28.1272 32.2049 46.0376 36.8949 63.5314 28.855" stroke="url(#paint2_linear_23_259)" stroke-opacity="0.48" stroke-width="2.21962" stroke-linecap="round"/>
<defs>
<filter id="filter0_biii_23_259" x="-10.0041" y="-9.26294" width="106.008" height="62.8219" filterUnits="userSpaceOnUse" color-interpolation-filters="sRGB">
<feFlood flood-opacity="0" result="BackgroundImageFix"/>
<feGaussianBlur in="BackgroundImageFix" stdDeviation="5.13825"/>
<feComposite in2="SourceAlpha" operator="in" result="effect1_backgroundBlur_23_259"/>
<feBlend mode="normal" in="SourceGraphic" in2="effect1_backgroundBlur_23_259" result="shape"/>
<feColorMatrix in="SourceAlpha" type="matrix" values="0 0 0 0 0 0 0 0 0 0 0 0 0 0 0 0 0 0 127 0" result="hardAlpha"/>
<feOffset dy="1"/>
<feGaussianBlur stdDeviation="4"/>
<feComposite in2="hardAlpha" operator="arithmetic" k2="-1" k3="1"/>
<feColorMatrix type="matrix" values="0 0 0 0 1 0 0 0 0 1 0 0 0 0 1 0 0 0 0.36 0"/>
<feBlend mode="normal" in2="shape" result="effect2_innerShadow_23_259"/>
<feColorMatrix in="SourceAlpha" type="matrix" values="0 0 0 0 0 0 0 0 0 0 0 0 0 0 0 0 0 0 127 0" result="hardAlpha"/>
<feOffset dy="1.14183"/>
<feGaussianBlur stdDeviation="0.570916"/>
<feComposite in2="hardAlpha" operator="arithmetic" k2="-1" k3="1"/>
<feColorMatrix type="matrix" values="0 0 0 0 1 0 0 0 0 1 0 0 0 0 1 0 0 0 0.15 0"/>
<feBlend mode="normal" in2="effect2_innerShadow_23_259" result="effect3_innerShadow_23_259"/>
<feColorMatrix in="SourceAlpha" type="matrix" values="0 0 0 0 0 0 0 0 0 0 0 0 0 0 0 0 0 0 127 0" result="hardAlpha"/>
<feOffset dy="0.285458"/>
<feGaussianBlur stdDeviation="0.142729"/>
<feComposite in2="hardAlpha" operator="arithmetic" k2="-1" k3="1"/>
<feColorMatrix type="matrix" values="0 0 0 0 1 0 0 0 0 1 0 0 0 0 1 0 0 0 0.05 0"/>
<feBlend mode="normal" in2="effect3_innerShadow_23_259" result="effect4_innerShadow_23_259"/>
</filter>
<filter id="filter1_i_23_259" x="18.0293" y="44.3923" width="51.5118" height="16.2485" filterUnits="userSpaceOnUse" color-interpolation-filters="sRGB">
<feFlood flood-opacity="0" result="BackgroundImageFix"/>
<feBlend mode="normal" in="SourceGraphic" in2="BackgroundImageFix" result="shape"/>
<feColorMatrix in="SourceAlpha" type="matrix" values="0 0 0 0 0 0 0 0 0 0 0 0 0 0 0 0 0 0 127 0" result="hardAlpha"/>
<feOffset/>
<feGaussianBlur stdDeviation="0.5"/>
<feComposite in2="hardAlpha" operator="arithmetic" k2="-1" k3="1"/>
<feColorMatrix type="matrix" values="0 0 0 0 1 0 0 0 0 1 0 0 0 0 1 0 0 0 0.45 0"/>
<feBlend mode="normal" in2="shape" result="effect1_innerShadow_23_259"/>
</filter>
<linearGradient id="paint0_linear_23_259" x1="32.1587" y1="1.0196" x2="40.8457" y2="45.7933" gradientUnits="userSpaceOnUse">
<stop stop-color="#D9D9D9" stop-opacity="0.48"/>
<stop offset="1" stop-color="#D9D9D9" stop-opacity="0.09"/>
</linearGradient>
<linearGradient id="paint1_linear_23_259" x1="38.5" y1="45.5" x2="43.7853" y2="60.6408" gradientUnits="userSpaceOnUse">
<stop stop-color="#D9D9D9" stop-opacity="0.53"/>
<stop offset="1" stop-color="#D9D9D9" stop-opacity="0.32"/>
</linearGradient>
<linearGradient id="paint2_linear_23_259" x1="43.7467" y1="28.855" x2="56.1817" y2="45.8623" gradientUnits="userSpaceOnUse">
<stop stop-color="white"/>
<stop offset="1" stop-color="white" stop-opacity="0"/>
</linearGradient>
</defs>
</svg>
